<svg viewBox="0 0 560 560" version="1.1" xmlns="http://www.w3.org/2000/svg" style="stroke-miterlimit:1.41421;clip-rule:evenodd;fill-rule:evenodd;stroke-linejoin:round">
 <g transform="matrix(2.567 0 0 2.567 11.473 0)">
  <path d="m209.02 129.25c0 49.02-46.793 88.75-104.51 88.75-57.72 0-104.51-39.737-104.51-88.75 0-49.02 46.791-88.75 104.51-88.75 57.718 0 104.51 39.737 104.51 88.75" style="fill:url(#0)"/>
 </g>
 <g transform="translate(0 11)">
  <path d="m64.736 182.4c25.26-29.587 47.568-38.993 116.64-60.883-38.99 8.186-59.34-2.115-77.912-37.24 20.346 18.784 38.41 28.488 87.7 4.149 13.12-6.477 10.01-27.717 0-42.517 16.702 2.766 34.937 22.866 46.783 35.18l13.797-76.37h25.01l-10.944 61.711c14.538-15.409 29.548-32.13 44.85-31.864-21.37 26.878-21.955 37.43 6.622 58.36 16.843 4.92 15.792-16.825-3.568-35.28 30.931 15.11 46.19 31.959 30.3 45.29 83.34 12.248 118.43 36.979 153.16 79.45-52.02-33.483-110.57-31.964-179.89-24.02 50.46 26.968 53.37 85.06 41.723 152.82-21.494-71.969-52.657-121.73-102.3-136.26-7.808 70.33-59.58 83.06-140.18 50.979 78.71-7.716 118.9-22.738 74.63-61.6-26.744-23.478-70.16-1.873-126.43 18.08" style="fill:#172d18"/>
 </g>
 <path d="m64.736 193.4c25.26-29.587 47.568-49.993 116.64-71.883-38.99 8.186-56.97 1.532-77.912-26.24 20.346 18.784 38.41 17.488 87.7-6.851 13.12-6.477 14.874-19.699 0-31.517 16.702 2.766 34.937 11.866 46.783 24.18l13.797-81.1h28l-13.932 66.44c14.538-15.409 29.548-21.13 44.85-20.864-21.37 13.01-28.577 28.777 0 49.709 16.842 4.92 17.986-10.155 3.054-26.622 30.931 15.11 42.34 27.572 26.443 40.903 83.33 12.248 122.28 41.37 157.01 83.84-52.02-33.483-110.57-42.964-179.89-35.02 50.46 26.968 55.07 84.06 43.43 151.82-21.495-71.969-54.36-120.73-104-135.26-7.808 70.33-60.821 82.97-140.18 61.979 78.71-7.716 118.9-33.738 74.63-72.6-26.744-23.478-71.66-1.984-126.43 29.08" style="fill:#659b41"/>
 <g transform="matrix(4.97 0 0 4.97-272.85-144.24)">
  <path d="m111.42 29.02h-5.876l3.075 3.164-1.906 10.908c0 0-.754 3.099 0 5.906.516 1.921-.321 3.447-2.406 3.642-1.165-.033-2.01-.388-2.576-1.067-.565-.682-.39-2.364.564-4.985-1.31 2.686-3.676 3.333-7.101 1.94 3.743 1.685 5.194 3.045 4.38 4.047-.918 1.198-2.579 3.108-5.02 5.73 3.746-2.168 6.855-2.978 9.328-2.427 3.565.808 5.865 2.394 6.886 4.822 1.063-3.044 1.499-5.341 1.45-6.895 2.296-1.101 6.111-.614 11.481 1.457-3.712-2.914-7.767-4.588-10.627-5.332.236-.909-.395-1.919 1.514-3.342l-3.568 1.391c-2.174 1.077-2.268-2.195-1.802-4.887l2.201-14.07" style="fill:#066839"/>
 </g>
 <defs>
  <radialGradient id="0" cx="0" cy="0" r="1" gradientUnits="userSpaceOnUse" gradientTransform="matrix(18.344 97-143.16 27.07 72.33 121)">
   <stop offset="0%" style="stop-color:#fcba63"/>
   <stop offset="52%" style="stop-color:#ee2725"/>
   <stop offset="100%" style="stop-color:#b31c24"/>
  </radialGradient>
 </defs>
</svg>
